<?xml version="1.0" encoding="UTF-8"?>
<svg version="1.1" xmlns="http://www.w3.org/2000/svg" width="512" height="512">
<path d="M0 0 C3.18557733 1.15657988 4.83360209 2.67591459 7.2355957 5.06396484 C8.10587402 5.92586426 8.97615234 6.78776367 9.87280273 7.67578125 C10.78529785 8.60696777 11.69779297 9.5381543 12.63793945 10.49755859 C13.34149567 11.21042023 13.34149567 11.21042023 14.05926514 11.93768311 C28.94564674 27.05538351 40.27871223 43.85390697 49.57543945 62.93505859 C54.14118834 60.38259847 58.4890024 57.67946 62.82543945 54.74755859 C81.4106751 42.63869064 108.01575873 29.93505859 130.57543945 29.93505859 C134.70067083 42.81349943 138.66713762 55.51822878 140.57543945 68.93505859 C140.76106445 70.22025391 140.94668945 71.50544922 141.13793945 72.82958984 C141.83563311 79.35989153 141.72446365 85.93397118 141.70581055 92.4934082 C141.70041021 94.75983237 141.70580353 97.026062 141.7121582 99.29248047 C141.71149806 100.74235069 141.71021821 102.1922208 141.70825195 103.64208984 C141.70712402 104.94637939 141.70599609 106.25066895 141.70483398 107.59448242 C141.60135679 110.26595127 141.37986901 112.40873439 140.57543945 114.93505859 C141.09662354 114.77497314 141.61780762 114.6148877 142.15478516 114.44995117 C169.1093886 108.71649089 200.25061714 116.38166567 225.57543945 124.93505859 C221.80842278 153.95037189 209.71472233 181.40821891 192.57543945 204.93505859 C195.66913674 207.4832882 198.99180555 209.27947251 202.51489258 211.14428711 C215.79194897 218.20228274 227.53746648 226.8025437 238.5402832 237.05224609 C240.23453508 238.61967298 241.95243006 240.06995067 243.76293945 241.49755859 C246.84621981 244.1697349 249.42374735 247.06043029 252.05981445 250.16552734 C253.60751578 252.01850767 253.60751578 252.01850767 255.57543945 253.93505859 C255.65853389 256.84336377 254.9914154 258.45919082 253.08325195 260.64208984 C251.84786027 261.85892414 250.5971776 263.06038957 249.33325195 264.24755859 C247.4439374 265.97912401 247.4439374 265.97912401 245.63793945 268.43505859 C242.6454985 272.06225976 239.18137984 274.92919073 235.57543945 277.93505859 C235.0767334 278.36206055 234.57802734 278.7890625 234.06420898 279.22900391 C221.42258664 290.02384358 207.51330248 298.66335489 192.57543945 305.93505859 C195.10601642 310.46286223 197.78399688 314.76610809 200.70043945 319.06005859 C212.87794984 337.70192091 225.57543945 364.17786589 225.57543945 386.93505859 C212.34822261 391.20852107 199.37901282 395.08509515 185.57543945 396.93505859 C184.26961914 397.12068359 182.96379883 397.30630859 181.6184082 397.49755859 C175.24923662 398.18210845 168.84217803 398.08422773 162.44433594 398.06542969 C160.250338 398.06002757 158.05654089 398.06542432 155.86254883 398.07177734 C154.4582515 398.07111722 153.05395431 398.06983742 151.6496582 398.06787109 C150.38726318 398.06674316 149.12486816 398.06561523 147.82421875 398.06445312 C145.19195361 397.95961353 143.06854782 397.7219447 140.57543945 396.93505859 C140.81556763 397.71683472 140.81556763 397.71683472 141.06054688 398.5144043 C146.79400715 425.46900774 139.12883238 456.61023628 130.57543945 481.93505859 C101.56012616 478.16804192 74.10227914 466.07434147 50.57543945 448.93505859 C48.02720984 452.02875588 46.23102553 455.35142469 44.36621094 458.87451172 C36.88546261 472.94682382 27.6162826 485.43909672 16.57543945 496.93505859 C15.99294434 497.55928711 15.41044922 498.18351562 14.81030273 498.82666016 C12.83220261 500.94198385 10.83170714 503.03395765 8.82543945 505.12255859 C8.18695068 505.80777588 7.54846191 506.49299316 6.890625 507.19897461 C6.27614502 507.82731201 5.66166504 508.45564941 5.02856445 509.10302734 C4.48361328 509.67303467 3.93866211 510.24304199 3.37719727 510.83032227 C1.57543945 511.93505859 1.57543945 511.93505859 -0.84912109 511.87011719 C-4.03469842 510.71353731 -5.68272318 509.19420259 -8.0847168 506.80615234 C-8.95499512 505.94425293 -9.82527344 505.08235352 -10.72192383 504.19433594 C-11.63441895 503.26314941 -12.54691406 502.33196289 -13.48706055 501.37255859 C-13.95609802 500.8973175 -14.4251355 500.42207642 -14.90838623 499.93243408 C-29.79476784 484.81473368 -41.12783332 468.01621021 -50.42456055 448.93505859 C-54.99030944 451.48751871 -59.33812349 454.19065718 -63.67456055 457.12255859 C-82.2597962 469.23142655 -108.86487982 481.93505859 -131.42456055 481.93505859 C-135.54979193 469.05661775 -139.51625871 456.3518884 -141.42456055 442.93505859 C-141.61018555 441.64986328 -141.79581055 440.36466797 -141.98706055 439.04052734 C-142.68475421 432.51022566 -142.57358475 425.93614601 -142.55493164 419.37670898 C-142.5495313 417.11028482 -142.55492462 414.84405518 -142.5612793 412.57763672 C-142.56061915 411.12776649 -142.55933931 409.67789639 -142.55737305 408.22802734 C-142.55624512 406.92373779 -142.55511719 405.61944824 -142.55395508 404.27563477 C-142.45047788 401.60416592 -142.2289901 399.4613828 -141.42456055 396.93505859 C-141.94735596 397.09586914 -142.47015137 397.25667969 -143.00878906 397.42236328 C-148.63205923 398.6157809 -154.62370847 398.18027521 -160.36206055 398.18505859 C-161.44225967 398.18607071 -161.44225967 398.18607071 -162.54428101 398.18710327 C-184.82488566 398.15396466 -205.38181977 394.13486761 -226.42456055 386.93505859 C-222.65754387 357.9197453 -210.56384342 330.46189828 -193.42456055 306.93505859 C-196.51825784 304.38682898 -199.84092664 302.59064468 -203.36401367 300.72583008 C-216.64107006 293.66783444 -228.38658757 285.06757349 -239.3894043 274.81787109 C-241.08365618 273.25044421 -242.80155115 271.80016652 -244.61206055 270.37255859 C-247.6953409 267.70038229 -250.27286845 264.8096869 -252.90893555 261.70458984 C-254.45663687 259.85160952 -254.45663687 259.85160952 -256.42456055 257.93505859 C-256.50765498 255.02675342 -255.8405365 253.41092637 -253.93237305 251.22802734 C-252.69698136 250.01119305 -251.44629869 248.80972762 -250.18237305 247.62255859 C-248.29305849 245.89099318 -248.29305849 245.89099318 -246.48706055 243.43505859 C-243.49461959 239.80785743 -240.03050093 236.94092646 -236.42456055 233.93505859 C-235.92585449 233.50805664 -235.42714844 233.08105469 -234.91333008 232.64111328 C-222.27170773 221.84627361 -208.36242358 213.2067623 -193.42456055 205.93505859 C-193.82545898 205.32662109 -194.22635742 204.71818359 -194.6394043 204.09130859 C-209.10814362 181.78123435 -226.42456055 152.39226132 -226.42456055 124.93505859 C-202.0337772 116.6971349 -167.31917945 106.98133966 -141.42456055 114.93505859 C-141.66577637 114.1587207 -141.66577637 114.1587207 -141.91186523 113.36669922 C-143.13579805 107.5617607 -142.66979469 101.35845701 -142.67456055 95.43505859 C-142.67523529 94.68963806 -142.67591003 93.94421753 -142.67660522 93.1762085 C-142.64486552 71.12156178 -138.56737798 50.78361722 -131.42456055 29.93505859 C-102.46706609 33.69701828 -74.84853146 45.70316347 -51.42456055 62.93505859 C-48.87633094 59.8413613 -47.08014663 56.5186925 -45.21533203 52.99560547 C-37.7345837 38.92329337 -28.4654037 26.43102047 -17.42456055 14.93505859 C-16.84206543 14.31083008 -16.25957031 13.68660156 -15.65942383 13.04345703 C-13.68132371 10.92813333 -11.68082823 8.83615953 -9.67456055 6.74755859 C-9.03607178 6.06234131 -8.39758301 5.37712402 -7.73974609 4.67114258 C-7.12526611 4.04280518 -6.51078613 3.41446777 -5.87768555 2.76708984 C-5.33273438 2.19708252 -4.7877832 1.6270752 -4.22631836 1.03979492 C-2.42456055 -0.06494141 -2.42456055 -0.06494141 0 0 Z " fill="#FCBE00" transform="translate(256.424560546875,0.06494140625)"/>
<path d="M0 0 C3.18557733 1.15657988 4.83360209 2.67591459 7.2355957 5.06396484 C8.10587402 5.92586426 8.97615234 6.78776367 9.87280273 7.67578125 C10.78529785 8.60696777 11.69779297 9.5381543 12.63793945 10.49755859 C13.34149567 11.21042023 13.34149567 11.21042023 14.05926514 11.93768311 C40.99067496 39.28757887 60.09499091 74.43108009 59.86865234 113.44726562 C59.60599837 130.53611154 55.39742531 146.69482971 47.57543945 161.93505859 C46.42043945 161.54318359 45.26543945 161.15130859 44.07543945 160.74755859 C39.60423814 159.26422167 35.12563705 157.80512904 30.63793945 156.37255859 C29.99469727 156.16284424 29.35145508 155.95312988 28.6887207 155.73706055 C3.32815933 147.7072728 -24.96868795 150.74065798 -48.53930664 162.90771484 C-71.766996 175.56533163 -91.38566487 196.40893659 -99.5847168 221.95068359 C-99.86186523 222.93552734 -100.13901367 223.92037109 -100.42456055 224.93505859 C-100.79452148 226.18802734 -101.16448242 227.44099609 -101.5456543 228.73193359 C-108.72199022 255.13583737 -104.58511629 284.04822206 -91.3269043 307.91064453 C-76.60825266 332.86998514 -53.30167969 350.05533787 -25.42431641 357.7019043 C-2.52727638 363.41402445 22.15640545 360.77366525 43.4934082 350.85302734 C45.57543945 349.93505859 45.57543945 349.93505859 47.57543945 349.93505859 C58.70279786 374.67488546 64.31647131 401.21334718 56.57543945 427.93505859 C56.34969238 428.72299805 56.12394531 429.5109375 55.89135742 430.32275391 C50.79063318 447.75927223 43.2357565 463.20336585 32.57543945 477.93505859 C31.83551758 478.97275391 31.0955957 480.01044922 30.33325195 481.07958984 C24.5684608 488.90587031 17.98280513 495.92155031 11.20043945 502.87255859 C10.33193359 503.78005859 9.46342773 504.68755859 8.56860352 505.62255859 C7.738125 506.45658203 6.90764648 507.29060547 6.05200195 508.14990234 C4.93946045 509.28093384 4.93946045 509.28093384 3.80444336 510.43481445 C1.57543945 511.93505859 1.57543945 511.93505859 -0.91308594 511.9296875 C-4.01012714 510.70315441 -5.72221098 509.15494402 -8.0847168 506.80615234 C-8.95499512 505.94425293 -9.82527344 505.08235352 -10.72192383 504.19433594 C-11.63441895 503.26314941 -12.54691406 502.33196289 -13.48706055 501.37255859 C-13.95609802 500.8973175 -14.4251355 500.42207642 -14.90838623 499.93243408 C-29.79476784 484.81473368 -41.12783332 468.01621021 -50.42456055 448.93505859 C-54.99030944 451.48751871 -59.33812349 454.19065718 -63.67456055 457.12255859 C-82.2597962 469.23142655 -108.86487982 481.93505859 -131.42456055 481.93505859 C-135.54979193 469.05661775 -139.51625871 456.3518884 -141.42456055 442.93505859 C-141.61018555 441.64986328 -141.79581055 440.36466797 -141.98706055 439.04052734 C-142.68475421 432.51022566 -142.57358475 425.93614601 -142.55493164 419.37670898 C-142.5495313 417.11028482 -142.55492462 414.84405518 -142.5612793 412.57763672 C-142.56061915 411.12776649 -142.55933931 409.67789639 -142.55737305 408.22802734 C-142.55624512 406.92373779 -142.55511719 405.61944824 -142.55395508 404.27563477 C-142.45047788 401.60416592 -142.2289901 399.4613828 -141.42456055 396.93505859 C-141.94735596 397.09586914 -142.47015137 397.25667969 -143.00878906 397.42236328 C-148.63205923 398.6157809 -154.62370847 398.18027521 -160.36206055 398.18505859 C-161.44225967 398.18607071 -161.44225967 398.18607071 -162.54428101 398.18710327 C-184.82488566 398.15396466 -205.38181977 394.13486761 -226.42456055 386.93505859 C-222.65754387 357.9197453 -210.56384342 330.46189828 -193.42456055 306.93505859 C-196.51825784 304.38682898 -199.84092664 302.59064468 -203.36401367 300.72583008 C-216.64107006 293.66783444 -228.38658757 285.06757349 -239.3894043 274.81787109 C-241.08365618 273.25044421 -242.80155115 271.80016652 -244.61206055 270.37255859 C-247.6953409 267.70038229 -250.27286845 264.8096869 -252.90893555 261.70458984 C-254.45663687 259.85160952 -254.45663687 259.85160952 -256.42456055 257.93505859 C-256.50765498 255.02675342 -255.8405365 253.41092637 -253.93237305 251.22802734 C-252.69698136 250.01119305 -251.44629869 248.80972762 -250.18237305 247.62255859 C-248.29305849 245.89099318 -248.29305849 245.89099318 -246.48706055 243.43505859 C-243.49461959 239.80785743 -240.03050093 236.94092646 -236.42456055 233.93505859 C-235.92585449 233.50805664 -235.42714844 233.08105469 -234.91333008 232.64111328 C-222.27170773 221.84627361 -208.36242358 213.2067623 -193.42456055 205.93505859 C-193.82545898 205.32662109 -194.22635742 204.71818359 -194.6394043 204.09130859 C-209.10814362 181.78123435 -226.42456055 152.39226132 -226.42456055 124.93505859 C-202.0337772 116.6971349 -167.31917945 106.98133966 -141.42456055 114.93505859 C-141.66577637 114.1587207 -141.66577637 114.1587207 -141.91186523 113.36669922 C-143.13579805 107.5617607 -142.66979469 101.35845701 -142.67456055 95.43505859 C-142.67523529 94.68963806 -142.67591003 93.94421753 -142.67660522 93.1762085 C-142.64486552 71.12156178 -138.56737798 50.78361722 -131.42456055 29.93505859 C-102.46706609 33.69701828 -74.84853146 45.70316347 -51.42456055 62.93505859 C-48.87633094 59.8413613 -47.08014663 56.5186925 -45.21533203 52.99560547 C-37.7345837 38.92329337 -28.4654037 26.43102047 -17.42456055 14.93505859 C-16.84206543 14.31083008 -16.25957031 13.68660156 -15.65942383 13.04345703 C-13.68132371 10.92813333 -11.68082823 8.83615953 -9.67456055 6.74755859 C-9.03607178 6.06234131 -8.39758301 5.37712402 -7.73974609 4.67114258 C-7.12526611 4.04280518 -6.51078613 3.41446777 -5.87768555 2.76708984 C-5.33273438 2.19708252 -4.7877832 1.6270752 -4.22631836 1.03979492 C-2.42456055 -0.06494141 -2.42456055 -0.06494141 0 0 Z " fill="#FED92C" transform="translate(256.424560546875,0.06494140625)"/>
<path d="M0 0 C4.23992954 3.42735067 8.14432069 7.14981311 12 11 C12.80179688 11.79019531 13.60359375 12.58039063 14.4296875 13.39453125 C34.26434247 34.08708652 41.69674209 62.13602258 41.33984375 90.08984375 C40.40819115 118.04328752 26.5137247 143.33254173 6.74609375 162.55859375 C-15.75332442 182.56163266 -44.09267914 190.40942842 -73.68505859 189.23828125 C-101.4356554 187.24354105 -125.73266233 172.61128295 -144.26953125 152.54296875 C-153.84282848 141.15697619 -160.66429224 128.18047211 -165 114 C-165.31541748 112.98244629 -165.31541748 112.98244629 -165.63720703 111.94433594 C-173.09640707 86.82047453 -170.01852871 59.11668885 -158.03173828 35.88964844 C-143.48730686 9.25124351 -119.9384875 -9.49222558 -90.96875 -18.25390625 C-59.84193722 -26.83613684 -25.56279768 -19.38644941 0 0 Z " fill="#714C2E" transform="translate(320,172)"/>
<path d="M0 0 C3.18557733 1.15657988 4.83360209 2.67591459 7.2355957 5.06396484 C8.10587402 5.92586426 8.97615234 6.78776367 9.87280273 7.67578125 C10.78529785 8.60696777 11.69779297 9.5381543 12.63793945 10.49755859 C13.34149567 11.21042023 13.34149567 11.21042023 14.05926514 11.93768311 C40.99067496 39.28757887 60.09499091 74.43108009 59.86865234 113.44726562 C59.60599837 130.53611154 55.39742531 146.69482971 47.57543945 161.93505859 C46.42043945 161.54318359 45.26543945 161.15130859 44.07543945 160.74755859 C39.60423814 159.26422167 35.12563705 157.80512904 30.63793945 156.37255859 C29.99469727 156.16284424 29.35145508 155.95312988 28.6887207 155.73706055 C2.19370398 147.34807588 -25.98358599 151.37194083 -50.42456055 163.93505859 C-52.04550587 164.90762579 -53.6536994 165.90243176 -55.23706055 166.93505859 C-56.81487305 167.92505859 -56.81487305 167.92505859 -58.42456055 168.93505859 C-62.48681778 167.58097285 -63.81696761 164.83794567 -66.11206055 161.43505859 C-81.61104311 139.19591904 -103.27649964 124.80916965 -129.42456055 117.93505859 C-132.41332162 117.4260406 -135.36825208 116.97675609 -138.38549805 116.68505859 C-140.42456055 115.93505859 -140.42456055 115.93505859 -141.53320312 113.82592773 C-142.58701495 110.40818307 -142.70025093 107.50835934 -142.7253418 103.93115234 C-142.73094116 103.25980759 -142.73654053 102.58846283 -142.74230957 101.89677429 C-142.75421012 99.72180702 -142.7479494 97.54752514 -142.73706055 95.37255859 C-142.73523773 94.62963562 -142.73341492 93.88671265 -142.73153687 93.12127686 C-142.64036692 71.10091497 -138.55616829 50.7508982 -131.42456055 29.93505859 C-102.46706609 33.69701828 -74.84853146 45.70316347 -51.42456055 62.93505859 C-48.87633094 59.8413613 -47.08014663 56.5186925 -45.21533203 52.99560547 C-37.7345837 38.92329337 -28.4654037 26.43102047 -17.42456055 14.93505859 C-16.84206543 14.31083008 -16.25957031 13.68660156 -15.65942383 13.04345703 C-13.68132371 10.92813333 -11.68082823 8.83615953 -9.67456055 6.74755859 C-9.03607178 6.06234131 -8.39758301 5.37712402 -7.73974609 4.67114258 C-7.12526611 4.04280518 -6.51078613 3.41446777 -5.87768555 2.76708984 C-5.33273438 2.19708252 -4.7877832 1.6270752 -4.22631836 1.03979492 C-2.42456055 -0.06494141 -2.42456055 -0.06494141 0 0 Z " fill="#FCBF00" transform="translate(256.424560546875,0.06494140625)"/>
<path d="M0 0 C3.63410733 1.35580158 7.03257236 3.02067369 10.4675293 4.81762695 C18.13144173 8.8047026 25.616031 11.80873538 34 14 C35.37671875 14.44666016 35.37671875 14.44666016 36.78125 14.90234375 C58.49874982 21.23661453 83.67929953 17.32793656 103.91796875 7.91796875 C106 7 106 7 108 7 C119.12735841 31.73982687 124.74103186 58.27828859 117 85 C116.77425293 85.78793945 116.54850586 86.57587891 116.31591797 87.38769531 C111.21519373 104.82421364 103.66031704 120.26830726 93 135 C92.26007813 136.03769531 91.52015625 137.07539063 90.7578125 138.14453125 C84.99302135 145.97081172 78.40736568 152.98649172 71.625 159.9375 C70.32224121 161.29875 70.32224121 161.29875 68.99316406 162.6875 C68.16268555 163.52152344 67.33220703 164.35554687 66.4765625 165.21484375 C65.364021 166.34587524 65.364021 166.34587524 64.22900391 167.49975586 C62 169 62 169 59.51147461 168.99462891 C56.41443341 167.76809582 54.70234957 166.21988543 52.33984375 163.87109375 C51.46956543 163.00919434 50.59928711 162.14729492 49.70263672 161.25927734 C48.7901416 160.32809082 47.87764648 159.3969043 46.9375 158.4375 C46.23394379 157.72463837 46.23394379 157.72463837 45.51617432 156.99737549 C30.62979271 141.87967508 19.29672723 125.08115162 10 106 C5.43425111 108.55246012 1.08643706 111.25559859 -3.25 114.1875 C-21.83523565 126.29636795 -48.44031927 139 -71 139 C-75.12523138 126.12155916 -79.09169817 113.41682981 -81 100 C-81.185625 98.71351563 -81.37125 97.42703125 -81.5625 96.1015625 C-82.25799453 89.59046163 -82.14902025 83.03669772 -82.13037109 76.49658203 C-82.12497883 74.24114362 -82.13035991 71.98590138 -82.13671875 69.73046875 C-82.13605845 68.28385373 -82.13477829 66.83723883 -82.1328125 65.390625 C-82.13168457 64.09157227 -82.13055664 62.79251953 -82.12939453 61.45410156 C-82.01849344 58.49367026 -81.69261909 55.87089581 -81 53 C-80.030625 52.85304688 -79.06125 52.70609375 -78.0625 52.5546875 C-58.22818782 49.3247422 -40.69430533 41.65813816 -25 29 C-24.26910156 28.42378906 -23.53820312 27.84757812 -22.78515625 27.25390625 C-13.61497557 19.68169765 -6.83539037 9.62914665 0 0 Z " fill="#FCBF00" transform="translate(196,343)"/>
<path d="M0 0 C0 69.3 0 138.6 0 210 C-8.61965783 210 -15.26164765 209.99122509 -23.3125 207.9375 C-24.65852295 207.60141724 -24.65852295 207.60141724 -26.03173828 207.25854492 C-54.13165563 199.89499731 -76.9637157 181.81876594 -91.77514648 156.94335938 C-95.77026163 149.93774851 -98.64531462 142.70129172 -101 135 C-101.31541748 133.98244629 -101.31541748 133.98244629 -101.63720703 132.94433594 C-109.09640707 107.82047453 -106.01852871 80.11668885 -94.03173828 56.88964844 C-80.44600741 32.00712194 -58.23751238 12.51459473 -31 4 C-27.97581442 3.12473671 -24.93914017 2.3473708 -21.875 1.625 C-21.18365967 1.45701904 -20.49231934 1.28903809 -19.7800293 1.1159668 C-12.91284093 -0.36156031 -7.42246543 0 0 0 Z " fill="#895D3B" transform="translate(256,151)"/>
<path d="M0 0 C1.5919519 0.01015137 1.5919519 0.01015137 3.21606445 0.02050781 C4.41428833 0.03355957 4.41428833 0.03355957 5.63671875 0.046875 C5.78181885 0.68488037 5.92691895 1.32288574 6.07641602 1.98022461 C13.13536825 32.60568275 24.3686306 59.27967583 51.63671875 77.046875 C47.58037285 83.90744717 43.21714635 89.95079027 37.75 95.7578125 C35.59508436 98.0267522 35.59508436 98.0267522 33.68359375 100.5625 C20.96901075 115.9947038 0.48039045 124.98067727 -18.36328125 130.046875 C-19.5028125 130.36914062 -20.64234375 130.69140625 -21.81640625 131.0234375 C-52.38842184 138.22873633 -86.20843399 132.02225484 -115.36328125 122.046875 C-111.90892198 95.43979439 -101.43657634 69.03121478 -85.98828125 47.109375 C-85.34463623 46.19418091 -85.34463623 46.19418091 -84.68798828 45.26049805 C-83.63430813 43.81457968 -82.50509023 42.42426167 -81.36328125 41.046875 C-80.70328125 41.046875 -80.04328125 41.046875 -79.36328125 41.046875 C-79.151875 40.51320313 -78.94046875 39.97953125 -78.72265625 39.4296875 C-68.44668506 21.41720927 -44.775506 9.01862871 -25.55078125 3.671875 C-23.16170952 3.10112425 -20.76592125 2.55750319 -18.36328125 2.046875 C-17.31398438 1.82257813 -16.2646875 1.59828125 -15.18359375 1.3671875 C-10.07899599 0.39930273 -5.19771339 -0.04322423 0 0 Z " fill="#FED92C" transform="translate(145.36328125,264.953125)"/>
<path d="M0 0 C29.48340331 3.83028217 57.42594208 16.10463749 81 34 C80.30859354 38.09466273 79.04041016 41.78868836 77.625 45.6875 C68.30031441 72.94946533 70.56980485 100.15123395 81.609375 126.4375 C83 130 83 130 83 133 C80.91796875 134.640625 80.91796875 134.640625 78.1875 136.25 C76.84751953 137.06210937 76.84751953 137.06210937 75.48046875 137.890625 C73 139 73 139 70 138 C68.34746382 135.86315038 66.81984665 133.73491186 65.3125 131.5 C49.81351744 109.26086044 28.14806091 94.87411106 2 88 C-0.98876107 87.490982 -3.94369153 87.0416975 -6.9609375 86.75 C-9 86 -9 86 -10.10864258 83.89086914 C-11.1624544 80.47312447 -11.27569038 77.57330075 -11.30078125 73.99609375 C-11.30638062 73.32474899 -11.31197998 72.65340424 -11.31774902 71.9617157 C-11.32964958 69.78674842 -11.32338885 67.61246655 -11.3125 65.4375 C-11.31067719 64.69457703 -11.30885437 63.95165405 -11.30697632 63.18621826 C-11.21580638 41.16585638 -7.13160774 20.81583961 0 0 Z " fill="#FCBF00" transform="translate(125,30)"/>
<path d="M0 0 C1.49421414 2.01420067 2.87731995 4.03087661 4.25 6.125 C18.41872401 26.78951421 40.68070349 43.97455044 65.609375 48.94921875 C66.42494873 49.11454102 67.24052246 49.27986328 68.08081055 49.45019531 C69.71082276 49.77026461 71.34529715 50.06853189 72.98364258 50.34277344 C75.25390625 50.77734375 75.25390625 50.77734375 79 52 C81.18151054 55.86560683 81.28116763 59.4524244 81.3359375 63.828125 C81.34857384 64.81436356 81.34857384 64.81436356 81.36146545 65.82052612 C81.38117716 67.96393424 81.38115721 70.10651626 81.375 72.25 C81.37412384 72.98619568 81.37324768 73.72239136 81.37234497 74.480896 C81.28545173 96.6780591 77.095826 116.99073104 70 138 C40.45574723 134.16431187 12.67772402 121.80389726 -11 104 C-10.58402437 102.60396057 -10.16715317 101.20818801 -9.75 99.8125 C-9.47800781 98.89855469 -9.20601563 97.98460937 -8.92578125 97.04296875 C-8.29721521 94.97692258 -7.6480124 92.91706496 -6.98046875 90.86328125 C-6.63628906 89.79464844 -6.29210937 88.72601563 -5.9375 87.625 C-5.61652344 86.64789063 -5.29554688 85.67078125 -4.96484375 84.6640625 C1.44014661 60.34065782 -1.43624819 36.3609352 -10.73046875 13.35546875 C-11.7987147 10.53201253 -12.53039457 7.97039581 -13 5 C-11.40377344 3.96679519 -9.79770894 2.94877571 -8.1875 1.9375 C-7.29417969 1.36902344 -6.40085937 0.80054688 -5.48046875 0.21484375 C-3 -1 -3 -1 0 0 Z " fill="#FE9100" transform="translate(317,344)"/>
<path d="M0 0 C4.12523138 12.87844084 8.09169817 25.58317019 10 39 C10.18433594 40.28648438 10.36867188 41.57296875 10.55859375 42.8984375 C11.25278203 49.41025547 11.18602013 55.96216468 11.18530273 62.50341797 C11.18750878 64.75897572 11.20577708 67.01405837 11.22460938 69.26953125 C11.2275407 70.71614418 11.22952724 72.1627594 11.23046875 73.609375 C11.23457764 74.90842773 11.23868652 76.20748047 11.24291992 77.54589844 C11.00826585 80.88246702 10.66104231 83.10556679 9 86 C6.17701488 86.90225418 3.70942707 87.47156068 0.8125 87.9375 C-17.69647221 91.50344877 -33.70340977 99.80663254 -48 112 C-49.010625 112.763125 -50.02125 113.52625 -51.0625 114.3125 C-58.8578888 121.44445146 -64.90850055 130.41878688 -71 139 C-75.29183459 137.35442612 -79.04580299 135.32599824 -83 133 C-82.40014285 128.95501735 -81.05911232 125.40153946 -79.57446289 121.62060547 C-68.84423565 94.12319106 -69.23740041 66.07044765 -80.14453125 38.72265625 C-81 36 -81 36 -80 33 C-77.906251 31.35577348 -75.84911163 29.88595588 -73.625 28.4375 C-72.95799072 28.00131348 -72.29098145 27.56512695 -71.60375977 27.11572266 C-51.58738641 14.27780951 -24.3947806 0 0 0 Z " fill="#FE9100" transform="translate(387,30)"/>
<path d="M0 0 C1.54296875 1.46875 1.54296875 1.46875 3.1875 3.5 C23.156657 27.1149782 49.22387409 38.0186758 79.75 40.625 C82.34875 40.810625 82.34875 40.810625 85 41 C85 46.94 85 52.88 85 59 C82.215625 59.2475 79.43125 59.495 76.5625 59.75 C46.20436889 62.8334933 20.89805517 75.12588207 1.109375 98.63671875 C0.74328125 99.08660156 0.3771875 99.53648437 0 100 C-4.39325303 99.38775758 -7.95456904 97.71208574 -11.8125 95.625 C-12.4612207 95.2755835 -13.10994141 94.92616699 -13.77832031 94.56616211 C-25.70022355 87.98683674 -36.71464388 79.90017658 -47 71 C-47.87398437 70.24847656 -48.74796875 69.49695313 -49.6484375 68.72265625 C-54.32286868 64.61673697 -58.62097728 60.39330828 -62.625 55.62890625 C-64.05285575 53.89099423 -64.05285575 53.89099423 -66 52 C-66.08309443 49.09169482 -65.41597595 47.47586777 -63.5078125 45.29296875 C-62.27242082 44.07613445 -61.02173814 42.87466902 -59.7578125 41.6875 C-57.86849794 39.95593459 -57.86849794 39.95593459 -56.0625 37.5 C-53.07005904 33.87279884 -49.60594038 31.00586786 -46 28 C-45.50129395 27.57299805 -45.00258789 27.14599609 -44.48876953 26.70605469 C-13.21383929 0 -13.21383929 0 0 0 Z " fill="#FDBF00" transform="translate(66,206)"/>
<path d="M0 0 C4.50324685 0.60669929 8.12455899 2.41163436 12.0625 4.5625 C12.7237085 4.92110107 13.38491699 5.27970215 14.06616211 5.64916992 C31.90221817 15.47027581 49.5336457 28.74430098 62.66015625 44.40625 C64.05796872 46.11545465 64.05796872 46.11545465 66 48 C66.08309443 50.90830518 65.41597595 52.52413223 63.5078125 54.70703125 C62.27242082 55.92386555 61.02173814 57.12533098 59.7578125 58.3125 C57.86849794 60.04406541 57.86849794 60.04406541 56.0625 62.5 C53.07005904 66.12720116 49.60594038 68.99413214 46 72 C45.50129395 72.42700195 45.00258789 72.85400391 44.48876953 73.29394531 C34.09176711 82.17207591 22.94318598 89.36404329 11 96 C10.26249512 96.41765625 9.52499023 96.8353125 8.76513672 97.265625 C3.55415613 100.07885603 3.55415613 100.07885603 0.87426758 99.69750977 C-1.60401638 98.77521495 -2.59665612 97.48812797 -4.25 95.4375 C-4.86359375 94.71175781 -5.4771875 93.98601562 -6.109375 93.23828125 C-6.73328125 92.49964844 -7.3571875 91.76101563 -8 91 C-27.29916466 68.82366629 -56.94310474 61.21133139 -85 58 C-85 52.39 -85 46.78 -85 41 C-83.09541016 40.85304688 -83.09541016 40.85304688 -81.15234375 40.703125 C-49.60063788 38.05200577 -23.54023366 26.36448797 -2 3 C-1.34 2.01 -0.68 1.02 0 0 Z " fill="#FE9100" transform="translate(446,206)"/>
<path d="M0 0 C11.12735841 24.73982687 16.74103186 51.27828859 9 78 C8.77425293 78.78793945 8.54850586 79.57587891 8.31591797 80.38769531 C3.21519373 97.82421364 -4.33968296 113.26830726 -15 128 C-15.73992187 129.03769531 -16.47984375 130.07539063 -17.2421875 131.14453125 C-23.04028079 139.01014371 -29.67415922 145.95487064 -36.5625 152.875 C-37.45614258 153.77412109 -38.34978516 154.67324219 -39.27050781 155.59960938 C-45.74289663 162 -45.74289663 162 -48 162 C-48 112.17 -48 62.34 -48 11 C-41.73 10.34 -35.46 9.68 -29 9 C-25.65562089 8.29868227 -22.59695096 7.62501029 -19.375 6.625 C-18.63701172 6.40948486 -17.89902344 6.19396973 -17.13867188 5.97192383 C-11.82245318 4.37553057 -5.3042382 0 0 0 Z " fill="#FCBF00" transform="translate(304,350)"/>
<path d="M0 0 C1.216875 0.4125 2.43375 0.825 3.6875 1.25 C18.60465583 6.19904074 32.22930648 9.78686973 48 11 C48 60.83 48 110.66 48 162 C21.90886709 148.95443354 2.45563733 112.49972448 -6.37329102 86.01293945 C-16.05375111 56.13558541 -12.87973974 28.32058047 0 0 Z " fill="#FED92C" transform="translate(208,350)"/>
<path d="M0 0 C0 49.83 0 99.66 0 151 C-6.27 151.66 -12.54 152.32 -19 153 C-22.34437911 153.70131773 -25.40304904 154.37498971 -28.625 155.375 C-29.36298828 155.59051514 -30.10097656 155.80603027 -30.86132812 156.02807617 C-36.12304374 157.60810284 -41.04843458 159.6126381 -46 162 C-46.66 162 -47.32 162 -48 162 C-61.60401998 130.88600235 -64.16832851 101.09669885 -52 69 C-51.63132813 67.99839844 -51.26265625 66.99679688 -50.8828125 65.96484375 C-41.87227768 42.87923211 -26.27292236 24.32159993 -9.0625 6.875 C-8.39887451 6.19816162 -7.73524902 5.52132324 -7.05151367 4.82397461 C-6.42736572 4.19885986 -5.80321777 3.57374512 -5.16015625 2.9296875 C-4.59949463 2.36491699 -4.03883301 1.80014648 -3.46118164 1.21826172 C-2 0 -2 0 0 0 Z " fill="#FED92C" transform="translate(256,0)"/>
<path d="M0 0 C9.9 0 19.8 0 30 0 C30 9.9 30 19.8 30 30 C20.1 30 10.2 30 0 30 C0 20.1 0 10.2 0 0 Z " fill="#523522" transform="translate(271,241)"/>
<path d="M0 0 C9.9 0 19.8 0 30 0 C30 9.9 30 19.8 30 30 C20.1 30 10.2 30 0 30 C0 20.1 0 10.2 0 0 Z " fill="#714C2F" transform="translate(211,241)"/>
<path d="M0 0 C4.95 0 9.9 0 15 0 C15 9.9 15 19.8 15 30 C10.05 30 5.1 30 0 30 C0 20.1 0 10.2 0 0 Z " fill="#523522" transform="translate(256,271)"/>
<path d="M0 0 C4.95 0 9.9 0 15 0 C15 9.9 15 19.8 15 30 C10.05 30 5.1 30 0 30 C0 20.1 0 10.2 0 0 Z " fill="#714C2F" transform="translate(241,271)"/>
<path d="M0 0 C4.95 0 9.9 0 15 0 C15 9.9 15 19.8 15 30 C10.05 30 5.1 30 0 30 C0 20.1 0 10.2 0 0 Z " fill="#523522" transform="translate(256,211)"/>
<path d="M0 0 C4.95 0 9.9 0 15 0 C15 9.9 15 19.8 15 30 C10.05 30 5.1 30 0 30 C0 20.1 0 10.2 0 0 Z " fill="#714C2F" transform="translate(241,211)"/>
</svg>
